<?xml version="1.0" encoding="utf-8"?>
<!-- Generator: Adobe Illustrator 19.0.0, SVG Export Plug-In . SVG Version: 6.00 Build 0)  -->
<svg version="1.1" id="图层_1" xmlns="http://www.w3.org/2000/svg" xmlns:xlink="http://www.w3.org/1999/xlink" x="0px" y="0px"
	 viewBox="0 0 150 150" style="enable-background:new 0 0 150 150;" xml:space="preserve">
<style type="text/css">
	.st0{fill:url(#XMLID_8_);}
</style>
<linearGradient id="XMLID_8_" gradientUnits="userSpaceOnUse" x1="130.7745" y1="144.622" x2="16.1635" y2="28.3185">
	<stop  offset="0" style="stop-color:#F284F7"/>
	<stop  offset="1" style="stop-color:#54B6FF"/>
</linearGradient>
<path id="XMLID_2_" class="st0" d="M69.1,34.9v33.6H0.3V41.5c0-4.2,3.4-7.6,7.6-7.6h31.4c-8.4-1.8-14.8-5.4-15-12.2
	C24,13.8,32.8,1,45.8,3.9c13.3,3,22.7,13.5,29.8,22.4C82.8,17.2,93,5.4,106.9,3.6c11.6-1.5,21.3,10.3,20,18
	c-1.1,6.8-7.5,10.5-15.7,12.3h31c4.2,0,7.6,3.4,7.6,7.6v26.9H80.9l-0.1-33.9 M47.2,10.9c-6.4-2.6-10.2,0.2-12.9,4.7
	c-1.5,2.6-3.1,6-0.7,8.5c6.2,6.4,23.2,6,34.6,4.8C62.8,22.1,56.1,14.5,47.2,10.9z M117.6,24c4.4-5.7-4.2-17.7-13.6-13.2
	C95.1,15,88.7,21.9,83.1,28.7c4.8,0.4,9.6,0.5,14.4,0.3C103.4,28.8,114.2,28.4,117.6,24L117.6,24z M69.6,149H13.5
	c-3.8,0-6.8-3.1-6.8-7V73.9h63L69.6,149C69.6,149,69.6,149,69.6,149z M143.4,142.1c0,3.9-3.1,7-6.8,7H80.4V73.9h63V142.1z"/>
</svg>
