<?xml version="1.0" encoding="utf-8"?>
<!-- Generator: Adobe Illustrator 19.0.0, SVG Export Plug-In . SVG Version: 6.00 Build 0)  -->
<svg version="1.1" id="图层_1" xmlns="http://www.w3.org/2000/svg" xmlns:xlink="http://www.w3.org/1999/xlink" x="0px" y="0px"
	 viewBox="0 0 100 100" style="enable-background:new 0 0 100 100;" xml:space="preserve">
<style type="text/css">
	.st0{fill:url(#XMLID_4_);}
	.st1{fill:#FE6D40;}
	.st2{fill:#FFFFFF;}
</style>
<linearGradient id="XMLID_4_" gradientUnits="userSpaceOnUse" x1="-7.197" y1="57.197" x2="60.9851" y2="-10.9851">
	<stop  offset="0" style="stop-color:#FD5E24"/>
	<stop  offset="1" style="stop-color:#FFAF47"/>
</linearGradient>
<polygon id="XMLID_3_" class="st0" points="100,0 0,0 0,100 "/>
<g id="XMLID_16_">
	<path id="XMLID_17_" class="st1" d="M11.1,44.2l3-3l-1.1-1.1l2.6-2.6l1.1,1.1l0.7-0.7l2.2,2.2l-0.7,0.7l1,1l0.7-0.7l2.2,2.2L22,44
		l4.8,4.8c1.1,1,1.1,2,0.1,2.9L23.6,55l-2-2l1.7-1.7c0.3-0.3,0.3-0.6,0-0.8L22,49.1l0.3,1.2c0.2,0.6,0,1.2-0.7,1.7l-1.4,1.4
		l-1.8-1.8l0.7-0.7c0.3-0.3,0.4-0.6,0.2-0.8l-1.6-5.2l-1.4-1.4l-3,3L11.1,44.2z M21.2,33.7l-0.9-1.4l2.6-2.6l0.9,1.4l3.6-3.6
		l9.3,9.3c0.2,0.2,0.4,0.2,0.5,0.1l0.5-0.5l2.2,2.2l-2.1,2.1c-0.7,0.7-1.5,0.4-2.6-0.7l-7.7-7.7L25.8,34l4.1,6.3l2-2l2,2l-2.2,2.2
		l1.1,1.8c0.5,0.6,0.3,1.3-0.6,2.1l-2.8,2.8l-2-2l1.5-1.5c0.2-0.2,0.3-0.4,0.2-0.6L29.1,45l-0.2-0.4l-7.6-4l2.3-2.3l2,1.1l-2.1-3
		L20,39.8l-2.4-2.4L21.2,33.7z M25.1,58.3l1-1c0.2-0.2,0.3-0.4,0.2-0.6l-1.4-2l2.6-2.6l2,3.3c0.7,1,0.5,1.8-0.4,2.6l-2,2L25.1,58.3z
		 M28.3,51.4l2.5-2.5l1.9,1.3c0.3,0.2,0.6,0.1,1-0.2l1.3-1.3l1.8,1.8l-2.9,2.9c-0.7,0.7-1.5,0.8-2.4,0.2L28.3,51.4z M32.8,46.7
		l2.3-2.3l2,1.1c0.3,0.2,0.5,0.1,0.7-0.1l0.8-0.8l1.9,1.9l-2.2,2.2c-0.6,0.7-1.3,0.7-2.2,0.1L32.8,46.7z M36.7,42.8l2.4-2.4l1.9,1.3
		c0.3,0.2,0.5,0.2,0.6,0l0.7-0.7l1.9,1.9l-1.9,1.9c-0.7,0.9-1.4,0.9-2.3,0.1L36.7,42.8z"/>
	<path id="XMLID_24_" class="st1" d="M31.3,25.3l2.8-2.8l15.6,15.6l-2.8,2.8L31.3,25.3z M31.6,21.1l2.6-2.6l1.9,1
		c0.3,0.2,0.5,0.2,0.7-0.1l0.7-0.7l2.3,2.3L38,22.9c-0.6,0.7-1.3,0.8-2,0.4L31.6,21.1z M36.6,16.6L46,7.1L60.9,22
		c1.7,1.5,1.7,2.9,0.1,4.2l-4.7,4.7l-2.3-2.3l3.5-3.5c0.3-0.3,0.3-0.6,0-0.8l-12-12L39,19L36.6,16.6z"/>
</g>
<g id="XMLID_2_">
	<path id="XMLID_5_" class="st2" d="M8.8,44.2l3-3l-1.1-1.1l2.6-2.6l1.1,1.1L15,38l2.2,2.2l-0.7,0.7l1,1l0.7-0.7l2.2,2.2L19.7,44
		l4.8,4.8c1.1,1,1.1,2,0.1,2.9L21.4,55l-2-2l1.7-1.7c0.3-0.3,0.3-0.6,0-0.8l-1.4-1.4l0.3,1.2c0.2,0.6,0,1.2-0.7,1.7L18,53.4
		l-1.8-1.8l0.7-0.7c0.3-0.3,0.4-0.6,0.2-0.8l-1.6-5.2l-1.4-1.4l-3,3L8.8,44.2z M19,33.7l-0.9-1.4l2.6-2.6l0.9,1.4l3.6-3.6l9.3,9.3
		c0.2,0.2,0.4,0.2,0.5,0.1l0.5-0.5l2.2,2.2l-2.1,2.1c-0.7,0.7-1.5,0.4-2.6-0.7l-7.7-7.7L23.5,34l4.1,6.3l2-2l2,2l-2.2,2.2l1.1,1.8
		c0.5,0.6,0.3,1.3-0.6,2.1l-2.8,2.8l-2-2l1.5-1.5c0.2-0.2,0.3-0.4,0.2-0.6L26.8,45l-0.2-0.4l-7.6-4l2.3-2.3l2,1.1l-2.1-3l-3.3,3.3
		l-2.4-2.4L19,33.7z M22.9,58.3l1-1c0.2-0.2,0.3-0.4,0.2-0.6l-1.4-2l2.6-2.6l2,3.3c0.7,1,0.5,1.8-0.4,2.6l-2,2L22.9,58.3z M26,51.4
		l2.5-2.5l1.9,1.3c0.3,0.2,0.6,0.1,1-0.2l1.3-1.3l1.8,1.8l-2.9,2.9c-0.7,0.7-1.5,0.8-2.4,0.2L26,51.4z M30.6,46.7l2.3-2.3l2,1.1
		c0.3,0.2,0.5,0.1,0.7-0.1l0.8-0.8l1.9,1.9l-2.2,2.2c-0.6,0.7-1.3,0.7-2.2,0.1L30.6,46.7z M34.5,42.8l2.4-2.4l1.9,1.3
		c0.3,0.2,0.5,0.2,0.6,0L40,41l1.9,1.9L40,44.7c-0.7,0.9-1.4,0.9-2.3,0.1L34.5,42.8z"/>
	<path id="XMLID_12_" class="st2" d="M29,25.3l2.8-2.8l15.6,15.6l-2.8,2.8L29,25.3z M29.4,21.1l2.6-2.6l1.9,1
		c0.3,0.2,0.5,0.2,0.7-0.1l0.7-0.7l2.3,2.3l-1.9,1.9c-0.6,0.7-1.3,0.8-2,0.4L29.4,21.1z M34.3,16.6l9.4-9.4L58.6,22
		c1.7,1.5,1.7,2.9,0.1,4.2l-4.7,4.7l-2.3-2.3l3.5-3.5c0.3-0.3,0.3-0.6,0-0.8l-12-12L36.7,19L34.3,16.6z"/>
</g>
</svg>
