<?xml version="1.0" encoding="utf-8"?>
<!-- Generator: Adobe Illustrator 19.0.0, SVG Export Plug-In . SVG Version: 6.00 Build 0)  -->
<svg version="1.1" id="图层_1" xmlns="http://www.w3.org/2000/svg" xmlns:xlink="http://www.w3.org/1999/xlink" x="0px" y="0px"
	 viewBox="0 0 100 100" style="enable-background:new 0 0 100 100;" xml:space="preserve">
<style type="text/css">
	.st0{fill:url(#XMLID_12_);}
</style>
<g id="XMLID_9_">
	<g id="XMLID_10_">
		<linearGradient id="XMLID_12_" gradientUnits="userSpaceOnUse" x1="9.1061" y1="91.8889" x2="92.1061" y2="6.8889">
			<stop  offset="0" style="stop-color:#5C8EFD"/>
			<stop  offset="1" style="stop-color:#9B48FF"/>
		</linearGradient>
		<path id="XMLID_11_" class="st0" d="M65,30H35C24,30,15,39,15,50c0,11,9,20,20,20h30c11,0,20-9,20-20C85,39,76.1,30,65,30L65,30z
			 M50,55H40v10H30V55H20V45h10V35h10v10h10V55z M60,45c-2.8,0-5-2.2-5-5c0-2.8,2.2-5,5-5c2.8,0,5,2.2,5,5C65,42.8,62.8,45,60,45
			L60,45z M70,60c-2.8,0-5-2.2-5-5c0-2.8,2.2-5,5-5c2.8,0,5,2.2,5,5C75,57.8,72.8,60,70,60L70,60z M80,0H20C9,0,0,9,0,20v60
			c0,11,9,20,20,20h60c11.1,0,20-9,20-20V20C100,9,91.1,0,80,0L80,0z M90,75c0,8.3-6.7,15-15,15H25c-8.3,0-15-6.7-15-15V25
			c0-8.3,6.7-15,15-15h50c8.3,0,15,6.7,15,15V75z M90,75"/>
	</g>
</g>
</svg>
