<?xml version="1.0" encoding="utf-8"?>
<!-- Generator: Adobe Illustrator 19.0.0, SVG Export Plug-In . SVG Version: 6.00 Build 0)  -->
<svg version="1.1" id="图层_1" xmlns="http://www.w3.org/2000/svg" xmlns:xlink="http://www.w3.org/1999/xlink" x="0px" y="0px"
	 viewBox="0 0 100 100" style="enable-background:new 0 0 100 100;" xml:space="preserve">
<style type="text/css">
	.st0{fill:url(#XMLID_12_);}
</style>
<g id="XMLID_9_">
	<g id="XMLID_10_">
		<linearGradient id="XMLID_12_" gradientUnits="userSpaceOnUse" x1="97.6772" y1="81.4036" x2="7.3439" y2="21.9036">
			<stop  offset="0" style="stop-color:#93D976"/>
			<stop  offset="1" style="stop-color:#4AC8BA"/>
		</linearGradient>
		<path id="XMLID_11_" class="st0" d="M94.8,14H5.2C2.3,14,0,16.3,0,19.2v13.5h100V19.2C100,16.3,97.7,14,94.8,14L94.8,14z M0,80.8
			C0,83.7,2.3,86,5.2,86h89.7c2.8,0,5.2-2.3,5.2-5.2V41.9H0V80.8z M65,73.5l3.3-12.6c0.1-0.5,0.6-0.9,1.2-0.9h19.7
			c0.8,0,1.4,0.8,1.2,1.6l-3.3,12.6c-0.2,0.5-0.6,0.9-1.2,0.9H66.1C65.3,75,64.8,74.3,65,73.5L65,73.5z M28.1,51.7
			c0-1,0.8-1.7,1.7-1.7h3.2c0.9,0,1.7,0.8,1.7,1.7v4.6c0,0.9-0.8,1.7-1.7,1.7h-3.2c-0.9,0-1.7-0.8-1.7-1.7V51.7z M17.5,51.7
			c0-1,0.8-1.7,1.7-1.7h3.2c0.9,0,1.7,0.8,1.7,1.7v4.6c0,0.9-0.8,1.7-1.7,1.7h-3.2c-0.9,0-1.7-0.8-1.7-1.7V51.7z M6.8,51.7
			c0-1,0.8-1.7,1.7-1.7h3.2c0.9,0,1.7,0.8,1.7,1.7v4.6c0,0.9-0.8,1.7-1.7,1.7H8.5c-1,0-1.7-0.8-1.7-1.7L6.8,51.7L6.8,51.7z
			 M6.8,51.7"/>
	</g>
</g>
</svg>
