<?xml version="1.0" encoding="utf-8"?>
<!-- Generator: Adobe Illustrator 19.0.0, SVG Export Plug-In . SVG Version: 6.00 Build 0)  -->
<svg version="1.1" id="图层_1" xmlns="http://www.w3.org/2000/svg" xmlns:xlink="http://www.w3.org/1999/xlink" x="0px" y="0px"
	 viewBox="0 0 100 100" style="enable-background:new 0 0 100 100;" xml:space="preserve">
<style type="text/css">
	.st0{fill:url(#XMLID_36_);}
	.st1{fill:#51B8F8;}
	.st2{fill:#FFFFFF;}
</style>
<g id="XMLID_9_">
	<linearGradient id="XMLID_36_" gradientUnits="userSpaceOnUse" x1="-7.197" y1="57.197" x2="60.9851" y2="-10.9851">
		<stop  offset="0" style="stop-color:#4AC7FB"/>
		<stop  offset="1" style="stop-color:#66DFFE"/>
	</linearGradient>
	<polygon id="XMLID_11_" class="st0" points="100,0 0,0 0,100 	"/>
	<g id="XMLID_20_">
		<path id="XMLID_21_" class="st1" d="M26.3,26.8l5,5c1.5,1.3,1.5,2.5,0.1,3.7L17.5,49.5l-6.9-6.9L26.3,26.8z M16,42.3l10-10
			l-0.7-0.7l-10,10L16,42.3z M19.7,51.8l-0.6,0.6l-1.6-1.6l17.1-17.1l1.6,1.6L27.6,44l8,8L33,54.5L32.5,54l-6,6l-1.7-1.7l0.8-0.8
			L19.7,51.8z M27.9,34.2l-10,10l0.6,0.6l9.7-9.7c0.2-0.2,0.2-0.4,0-0.6L27.9,34.2z M23.2,50l2.6-2.6l-0.8-0.8l-2.6,2.6L23.2,50z
			 M28.2,49.9l-0.8-0.8l-2.6,2.6l0.8,0.8L28.2,49.9z M30.6,52.3L30,51.7l-2.6,2.6l0.6,0.6L30.6,52.3z M35.2,41.8l-4.3,4.3l-1.8-1.8
			l7.8-7.8l1.7,1.7l0.2,4.4l1.1-0.2c0.3,0,0.7-0.2,1.1-0.6l0.9-0.9l2,2l-2.5,2.5c-0.4,0.5-0.9,0.7-1.7,0.7h-1.1l-0.1,1
			c0.1,0.7-0.3,1.3-0.9,1.8l-2,2l-1.8-1.8l0.8-0.8c0.5-0.5,0.7-0.8,0.8-1.1l0.1-1l-2.9,0.3l-0.1-0.2l2.9-2.9L35.2,41.8z"/>
		<path id="XMLID_30_" class="st1" d="M32.8,21.4l-0.7-0.7l2.8-2.8l0.7,0.7l3.2-3.2l2.3,2.3L32,26.7l-2.3-2.3L32.8,21.4z M34.2,28.9
			l0.5-0.5l-2.2-1.3l3-3l2.3,1.2l1.6-1.6l-0.8-2.6l2.9-2.9l1.1,2.5l0.8-0.8l2.1,2.1l-9,9L34.2,28.9z M49.8,37.9l-6.5-6.5L40,34.7
			l-2.2-2.2l3.3-3.3l-1-1l2.5-2.5l1,1l3.2-3.2l2.2,2.2l-3.2,3.2l6.5,6.5L49.8,37.9z M44.1,10.2c0.5-0.4,0.4-0.8-0.2-1.3l2.3-2.3
			L47.6,8c1.3,1.1,1.3,2.1,0,3.2l-3.4,3.4l1.5,1.5l5-5l2.1,2.1l-0.6,0.6L63,24.4l-2.7,2.7L49.6,16.4l-1.7,1.7l8.9,8.9
			c1.3,1.3,1.3,2.7-0.2,4.1l-2.1,2.1c-1.1,1-2.2,1.1-3.3,0.1L46.6,29l2.1-2.1l2.9,2.8c0.7,0.6,1.2,0.7,1.5,0.3l0.3-0.3
			c0.4-0.3,0.3-0.6-0.1-1L39.5,14.8L44.1,10.2z M48.1,37.3c0.7,0.8,0.5,1.7-0.5,2.8L46.7,41l-2-2c0.4-0.3,0.4-0.6-0.1-1l-3.4-3.5
			l2.2-2.2L48.1,37.3z"/>
	</g>
	<g id="XMLID_1_">
		<path id="XMLID_2_" class="st2" d="M24.1,26.8l5,5c1.5,1.3,1.5,2.5,0.1,3.7L15.3,49.5l-6.9-6.9L24.1,26.8z M13.7,42.3l10-10
			L23,31.6l-10,10L13.7,42.3z M17.4,51.8l-0.6,0.6l-1.6-1.6l17.1-17.1l1.6,1.6L25.3,44l8,8l-2.6,2.6L30.2,54l-6,6l-1.7-1.7l0.8-0.8
			L17.4,51.8z M25.6,34.2l-10,10l0.6,0.6l9.7-9.7c0.2-0.2,0.2-0.4,0-0.6L25.6,34.2z M20.9,50l2.6-2.6l-0.8-0.8l-2.6,2.6L20.9,50z
			 M25.9,49.9l-0.8-0.8l-2.6,2.6l0.8,0.8L25.9,49.9z M28.4,52.3l-0.6-0.6l-2.6,2.6l0.6,0.6L28.4,52.3z M32.9,41.8l-4.3,4.3l-1.8-1.8
			l7.8-7.8l1.7,1.7l0.2,4.4l1.1-0.2c0.3,0,0.7-0.2,1.1-0.6l0.9-0.9l2,2L39,45.5c-0.4,0.5-0.9,0.7-1.7,0.7h-1.1l-0.1,1
			c0.1,0.7-0.3,1.3-0.9,1.8l-2,2l-1.8-1.8l0.8-0.8c0.5-0.5,0.7-0.8,0.8-1.1l0.1-1l-2.9,0.3l-0.1-0.2l2.9-2.9L32.9,41.8z"/>
		<path id="XMLID_14_" class="st2" d="M30.6,21.4l-0.7-0.7l2.8-2.8l0.7,0.7l3.2-3.2l2.3,2.3l-9.1,9.1l-2.3-2.3L30.6,21.4z
			 M31.9,28.9l0.5-0.5l-2.2-1.3l3-3l2.3,1.2l1.6-1.6l-0.8-2.6l2.9-2.9l1.1,2.5L41,20l2.1,2.1l-9,9L31.9,28.9z M47.5,37.9L41,31.4
			l-3.3,3.3l-2.2-2.2l3.3-3.3l-1-1l2.5-2.5l1,1l3.2-3.2l2.2,2.2l-3.2,3.2l6.5,6.5L47.5,37.9z M41.9,10.2c0.5-0.4,0.4-0.8-0.2-1.3
			L44,6.6L45.3,8c1.3,1.1,1.3,2.1,0,3.2l-3.4,3.4l1.5,1.5l5-5l2.1,2.1L50,13.7l10.7,10.7L58,27.1L47.3,16.4l-1.7,1.7l8.9,8.9
			c1.3,1.3,1.3,2.7-0.2,4.1l-2.1,2.1c-1.1,1-2.2,1.1-3.3,0.1L44.3,29l2.1-2.1l2.9,2.8c0.7,0.6,1.2,0.7,1.5,0.3l0.3-0.3
			c0.4-0.3,0.3-0.6-0.1-1L37.3,14.8L41.9,10.2z M45.8,37.3c0.7,0.8,0.5,1.7-0.5,2.8L44.4,41l-2-2c0.4-0.3,0.4-0.6-0.1-1L39,34.5
			l2.2-2.2L45.8,37.3z"/>
	</g>
</g>
</svg>
