<?xml version="1.0" standalone="no"?><!DOCTYPE svg PUBLIC "-//W3C//DTD SVG 1.1//EN" "http://www.w3.org/Graphics/SVG/1.1/DTD/svg11.dtd"><svg t="1562316694494" class="icon" viewBox="0 0 1497 1024" version="1.1" xmlns="http://www.w3.org/2000/svg" p-id="1429" xmlns:xlink="http://www.w3.org/1999/xlink" width="292.3828125" height="200"><defs><style type="text/css"></style></defs><path d="M1476.470467 150.422791 688.633041 938.260217C685.780224 950.315666 679.867532 961.795951 670.45784 971.205644L637.926532 1003.736952C610.985823 1030.700667 567.273316 1030.700667 540.332607 1003.736952L533.03952 996.466872C533.016514 996.420859 532.9705 996.397852 532.924487 996.351839L500.393179 963.820531C500.347166 963.774518 500.324159 963.728504 500.278146 963.705498L19.739648 483.167C-7.20106 456.203285-7.20106 412.513784 19.739648 385.550069L52.270956 353.01876C79.234672 326.055045 122.924173 326.055045 149.887888 353.01876L581.744456 784.875329 1346.322227 20.274551C1373.285942-6.689164 1416.975443-6.689164 1443.939158 20.274551L1476.470467 52.805859C1503.434182 79.769575 1503.434182 123.459076 1476.470467 150.422791Z" p-id="1430"></path></svg>