<?xml version="1.0" encoding="utf-8"?>
<!-- Generator: Adobe Illustrator 19.0.0, SVG Export Plug-In . SVG Version: 6.00 Build 0)  -->
<svg version="1.1" id="图层_1" xmlns="http://www.w3.org/2000/svg" xmlns:xlink="http://www.w3.org/1999/xlink" x="0px" y="0px"
	 viewBox="0 0 150 150" style="enable-background:new 0 0 150 150;" xml:space="preserve">
<style type="text/css">
	.st0{fill:url(#XMLID_13_);}
	.st1{fill:url(#XMLID_14_);}
	.st2{fill:url(#XMLID_15_);}
	.st3{fill:url(#XMLID_16_);}
</style>
<g id="XMLID_4_">
	<linearGradient id="XMLID_13_" gradientUnits="userSpaceOnUse" x1="19.049" y1="44.7809" x2="125.799" y2="144.5309">
		<stop  offset="0" style="stop-color:#F35694"/>
		<stop  offset="1" style="stop-color:#F68601"/>
	</linearGradient>
	<path id="XMLID_12_" class="st0" d="M129.8,47.2c-0.6,0-1.2,0-1.7,0.3L80.5,66.5c-3.3,1.3-6.9,1.3-10.1,0L22.7,47.5
		c-0.5-0.2-1.1-0.3-1.7-0.3c-5,0.5-8.9,4.5-8.9,9.4v81.6c0,5.2,4.4,9.5,9.9,9.5h106.9c5.4,0,9.9-4.3,9.9-9.5V56.6
		C138.7,51.7,134.8,47.7,129.8,47.2z M88.3,112c1.7,0.1,3.1,1.5,3.1,3.2c0,1.7-1.4,3.1-3.1,3.2h-9.6v6.7c0,1.6-1.4,2.9-3.2,2.9
		c-1.8,0-3.2-1.3-3.2-2.9v-6.7h-9.6c-1.7-0.1-3.1-1.5-3.1-3.2c0-1.7,1.4-3.1,3.1-3.2h9.6v-6.4h-9.6c-1.7-0.1-3.1-1.5-3.1-3.2
		c0-1.7,1.4-3.1,3.1-3.2h6.5l-6.1-11.4c-0.8-1.5-0.3-3.3,1-4.1c1.3-0.8,3.1-0.3,3.8,1.1l7,13.1c0.2,0.4,0.3,0.9,0.4,1.3h0
		c0-0.5,0.2-0.9,0.4-1.3L83,84.8c0.8-1.4,2.5-1.9,3.9-1.1c1.4,0.8,1.8,2.7,1,4.1l-6.2,11.4h6.5c1.8,0,3.2,1.4,3.2,3.2
		c0,1.8-1.4,3.2-3.2,3.2h-9.6v6.4H88.3z"/>
	<linearGradient id="XMLID_14_" gradientUnits="userSpaceOnUse" x1="44.9588" y1="17.0528" x2="151.7088" y2="116.8028">
		<stop  offset="0" style="stop-color:#F35694"/>
		<stop  offset="1" style="stop-color:#F68601"/>
	</linearGradient>
	<path id="XMLID_9_" class="st1" d="M114,33c-0.6-0.6-1.5-1-2.3-1h-6.9L87.2,3.6c-0.5-0.7-1.2-1.3-2-1.5c-0.9-0.2-1.8-0.1-2.5,0.4
		l-58.6,36c-1.6,1-2,3-1.1,4.6l9.5,15.4l5.6-3.5l-7.8-12.6l9.2-5.7v21.8h6.6V38.6h62.1v19.9h6.6V35.3C114.9,34.4,114.6,33.6,114,33z
		 M47.3,32l36-22.1L96.9,32H47.3z"/>
	<linearGradient id="XMLID_15_" gradientUnits="userSpaceOnUse" x1="47.2985" y1="31.9917" x2="47.2985" y2="31.9917">
		<stop  offset="0" style="stop-color:#F35694"/>
		<stop  offset="1" style="stop-color:#F68601"/>
	</linearGradient>
	<path id="XMLID_3_" class="st2" d="M47.3,32"/>
	<linearGradient id="XMLID_16_" gradientUnits="userSpaceOnUse" x1="42.4559" y1="19.7314" x2="149.2059" y2="119.4814">
		<stop  offset="0" style="stop-color:#F35694"/>
		<stop  offset="1" style="stop-color:#F68601"/>
	</linearGradient>
	<path id="XMLID_5_" class="st3" d="M96.3,48.9H58.2c-1.8,0-3.3,1.5-3.3,3.3c0,1.8,1.5,3.3,3.3,3.3h38.1c1.8,0,3.3-1.5,3.3-3.3
		C99.6,50.4,98.1,48.9,96.3,48.9L96.3,48.9z M96.3,48.9"/>
</g>
</svg>
