<?xml version="1.0" encoding="utf-8"?>
<!-- Generator: Adobe Illustrator 19.0.0, SVG Export Plug-In . SVG Version: 6.00 Build 0)  -->
<svg version="1.1" id="图层_1" xmlns="http://www.w3.org/2000/svg" xmlns:xlink="http://www.w3.org/1999/xlink" x="0px" y="0px"
	 viewBox="0 0 100 100" style="enable-background:new 0 0 100 100;" xml:space="preserve">
<style type="text/css">
	.st0{fill:url(#XMLID_26_);}
	.st1{fill:#F83451;}
	.st2{fill:#FFFFFF;}
</style>
<g id="XMLID_6_">
	<linearGradient id="XMLID_26_" gradientUnits="userSpaceOnUse" x1="-7.197" y1="57.197" x2="60.9851" y2="-10.9851">
		<stop  offset="0" style="stop-color:#FB4A64"/>
		<stop  offset="1" style="stop-color:#FF6A8C"/>
	</linearGradient>
	<polygon id="XMLID_8_" class="st0" points="100,0 0,0 0,100 	"/>
	<g id="XMLID_15_">
		<path id="XMLID_16_" class="st1" d="M13.1,40.4l2.7-2.7l1.4,1.4l1.1-1.1l2.2,2.2l-1.1,1.1l1,1l0.9-0.9l2.3,2.3l-0.9,0.9l8.1,8.1
			c1.5,1.4,1.5,2.6,0.2,3.8l-2.9,2.9l-2-2l1.6-1.6c0.5-0.4,0.5-0.7,0-1.1l-2.5-2.5l0.5,1.2c0.3,0.7,0,1.3-0.6,2l-1,1L22,54.4
			l0.2-0.2c0.3-0.3,0.2-0.8-0.2-1.5l-3.4-7.2l-1.7-1.7l-2.8,2.8l-2.3-2.3l2.6-2.6L13.1,40.4z M19.7,38c0.3-0.3,0.4-0.6,0.2-0.9
			l-1.3-2.3l2.7-2.7l1.1,1.9l2-2l-1.3-1.6l2.5-2.5l1.3,1.6l2-2l2.2,2.2l-2,2l2.5,2.5l2.1-2.1l2.1,2.1l-2.2,2.2l2.2,2.2l2.2-2.2
			l2.2,2.2L38,40.7l2.1,2.1l2.1-2.1l2,2l-7.5,7.5l0.4,0.4L34.5,53L21.9,40.4l-0.3,0.3l-2.3-2.3L19.7,38z M29,36.7l-2.5-2.5L23.7,37
			l2.5,2.5L29,36.7z M28.2,41.7l2.2,2.2l2.9-2.9l-2.2-2.2L28.2,41.7z M32.5,46l2.2,2.2l2.9-2.9l-2.2-2.2L32.5,46z"/>
		<path id="XMLID_22_" class="st1" d="M29.9,24.5l1.4-1.4l-1-0.7l3.2-3.2l1.1,0.5l7.9-7.9l-0.7-1l3.4-3.4l0.6,1.1l1.2-1.2l2.3,2.3
			L32.2,26.7L29.9,24.5z M35.8,25.4l-0.3-0.9l3.3-3.3l0.3,0.9l11.3-11.3l2.2,2.2L40.4,25.1l1.8,4.1l7.8,7.8l-3,3l-6.7-6.7l-0.9,0.9
			l-2.3-2.3l0.6-0.6c0.3-0.1,0.3-0.5,0.2-1l-0.8-2.1l-1.9,1.9l-2.2-2.2L35.8,25.4z M52.3,19.5L43.8,28l-2.1-2.1L53.6,14l1.8,1.8
			l0.2,3.5l0.2,0.2l1.7-1.7l2.1,2.1l-1.7,1.7l2.2,2.2c1.3,1.2,1.4,2.2,0.3,3.2L56,31.3l-1.9-1.9l2.5-2.5c0.3-0.3,0.3-0.6,0-0.8
			l-1.7-1.7l-7.4,7.4l-2.1-2.1l7.2-7.2L52.3,19.5z"/>
	</g>
	<g id="XMLID_1_">
		<path id="XMLID_2_" class="st2" d="M10.8,40.4l2.7-2.7l1.4,1.4l1.1-1.1l2.2,2.2l-1.1,1.1l1,1l0.9-0.9l2.3,2.3l-0.9,0.9l8.1,8.1
			c1.5,1.4,1.5,2.6,0.2,3.8l-2.9,2.9l-2-2l1.6-1.6c0.5-0.4,0.5-0.7,0-1.1l-2.5-2.5l0.5,1.2c0.3,0.7,0,1.3-0.6,2l-1,1l-2.1-2.1
			l0.2-0.2c0.3-0.3,0.2-0.8-0.2-1.5l-3.4-7.2l-1.7-1.7l-2.8,2.8l-2.3-2.3l2.6-2.6L10.8,40.4z M17.4,38c0.3-0.3,0.4-0.6,0.2-0.9
			l-1.3-2.3L19,32l1.1,1.9l2-2l-1.3-1.6l2.5-2.5l1.3,1.6l2-2l2.2,2.2l-2,2l2.5,2.5l2.1-2.1l2.1,2.1l-2.2,2.2l2.2,2.2l2.2-2.2
			l2.2,2.2l-2.2,2.2l2.1,2.1l2.1-2.1l2,2l-7.5,7.5l0.4,0.4L32.2,53L19.6,40.4l-0.3,0.3L17,38.4L17.4,38z M26.7,36.7l-2.5-2.5
			L21.4,37l2.5,2.5L26.7,36.7z M26,41.7l2.2,2.2L31,41l-2.2-2.2L26,41.7z M30.2,46l2.2,2.2l2.9-2.9L33,43.2L30.2,46z"/>
		<path id="XMLID_11_" class="st2" d="M27.6,24.5l1.4-1.4l-1-0.7l3.2-3.2l1.1,0.5l7.9-7.9l-0.7-1L43,7.5l0.6,1.1l1.2-1.2l2.3,2.3
			L29.9,26.7L27.6,24.5z M33.5,25.4l-0.3-0.9l3.3-3.3l0.3,0.9l11.3-11.3l2.2,2.2L38.2,25.1l1.8,4.1l7.8,7.8l-3,3l-6.7-6.7l-0.9,0.9
			l-2.3-2.3l0.6-0.6c0.3-0.1,0.3-0.5,0.2-1L35,28.2l-1.9,1.9l-2.2-2.2L33.5,25.4z M50.1,19.5L41.6,28l-2.1-2.1L51.3,14l1.8,1.8
			l0.2,3.5l0.2,0.2l1.7-1.7l2.1,2.1l-1.7,1.7l2.2,2.2c1.3,1.2,1.4,2.2,0.3,3.2l-4.4,4.4l-1.9-1.9l2.5-2.5c0.3-0.3,0.3-0.6,0-0.8
			l-1.7-1.7l-7.4,7.4l-2.1-2.1l7.2-7.2L50.1,19.5z"/>
	</g>
</g>
</svg>
