<?xml version="1.0" encoding="utf-8"?>
<!-- Generator: Adobe Illustrator 19.0.0, SVG Export Plug-In . SVG Version: 6.00 Build 0)  -->
<svg version="1.1" id="图层_1" xmlns="http://www.w3.org/2000/svg" xmlns:xlink="http://www.w3.org/1999/xlink" x="0px" y="0px"
	 viewBox="0 0 100 100" style="enable-background:new 0 0 100 100;" xml:space="preserve">
<style type="text/css">
	.st0{fill:url(#XMLID_8_);}
</style>
<g id="XMLID_2_">
	<g id="XMLID_3_">
		<linearGradient id="XMLID_8_" gradientUnits="userSpaceOnUse" x1="81.0347" y1="103.2477" x2="12.2847" y2="16.9977">
			<stop  offset="0" style="stop-color:#E068ED"/>
			<stop  offset="1" style="stop-color:#9072FF"/>
		</linearGradient>
		<path id="XMLID_4_" class="st0" d="M85.2,99.3H14.8c-3.9,0-7-2.9-7-6.6V43.4c0-3.6,3.2-6.6,7-6.6h70.4c3.9,0,7,2.9,7,6.6v49.3
			C92.2,96.4,89.1,99.3,85.2,99.3 M50,53.3c-5.8,0-10.6,4.4-10.6,9.9c0,3.6,2.1,6.8,5.3,8.5V81c0,2.8,2.4,5.1,5.3,5.1
			s5.3-2.3,5.3-5.1v-9.4c3.1-1.7,5.3-4.9,5.3-8.5C60.6,57.7,55.8,53.3,50,53.3 M50,10.6c-11.7,0-21.1,8.8-21.1,19.7H18.3
			C18.3,13.9,32.5,0.7,50,0.7c17.5,0,31.7,13.2,31.7,29.6H71.1C71.1,19.4,61.7,10.6,50,10.6"/>
	</g>
</g>
</svg>
