<?xml version="1.0" encoding="utf-8"?>
<!-- Generator: Adobe Illustrator 19.0.0, SVG Export Plug-In . SVG Version: 6.00 Build 0)  -->
<svg version="1.1" id="图层_1" xmlns="http://www.w3.org/2000/svg" xmlns:xlink="http://www.w3.org/1999/xlink" x="0px" y="0px"
	 viewBox="0 0 100 100" style="enable-background:new 0 0 100 100;" xml:space="preserve">
<style type="text/css">
	.st0{clip-path:url(#SVGID_2_);}
	.st1{clip-path:url(#SVGID_4_);}
	.st2{clip-path:url(#SVGID_6_);}
	.st3{fill:none;}
	.st4{fill:url(#SVGID_7_);}
	.st5{fill:url(#SVGID_8_);}
	.st6{fill:url(#SVGID_9_);}
</style>
<g>
	<defs>
		<rect id="SVGID_1_" x="1.7" y="1.6" width="96.7" height="96.8"/>
	</defs>
	<clipPath id="SVGID_2_">
		<use xlink:href="#SVGID_1_"  style="overflow:visible;"/>
	</clipPath>
	<path class="st0" d="M49.5,1.7c-0.3,0.2-0.6,0.1-1,0.1c-0.1,0-0.1-0.1,0-0.1H49.5z M51.4,1.8c-0.3,0-0.6,0.1-1-0.1L51.4,1.8
		C51.4,1.7,51.4,1.7,51.4,1.8L51.4,1.8z M48.5,98.2c0.3,0,0.6-0.1,1,0.1L48.5,98.2C48.5,98.2,48.5,98.2,48.5,98.2L48.5,98.2z
		 M50.4,98.3c0.3-0.2,0.6-0.1,1-0.1c0.1,0,0.1,0.1,0,0.1H50.4z M50.4,98.3"/>
	<path class="st0" d="M1.7,48.4c0,0.3,0,0.5-0.1,0.8L1.7,48.4C1.7,48.3,1.7,48.3,1.7,48.4L1.7,48.4z M1.7,50.8
		c0.1,0.2,0.1,0.5,0.1,0.8c0,0.1-0.1,0.1-0.1,0V50.8z M1.7,50.8"/>
</g>
<path d="M48.5,1.7C48.5,1.7,48.5,1.7,48.5,1.7c-0.2,0.1-0.5,0.2-0.7,0H48.5z M51.4,1.8C51.4,1.7,51.4,1.7,51.4,1.8L52,1.7
	C51.8,1.9,51.6,1.7,51.4,1.8L51.4,1.8z M48.5,98.2C48.5,98.2,48.5,98.2,48.5,98.2l-0.6,0.1C48.1,98.1,48.3,98.2,48.5,98.2L48.5,98.2
	z M48.5,98.2"/>
<g>
	<defs>
		<rect id="SVGID_3_" x="1.7" y="1.6" width="96.7" height="96.8"/>
	</defs>
	<clipPath id="SVGID_4_">
		<use xlink:href="#SVGID_3_"  style="overflow:visible;"/>
	</clipPath>
	<path class="st1" d="M98.2,48.2v-0.6c0-0.1,0.1-0.1,0.1,0L98.2,48.2C98.2,48.2,98.2,48.2,98.2,48.2L98.2,48.2z M98.2,48.2"/>
	<path class="st1" d="M1.7,48.4L1.7,48.4l-0.1-0.6C1.8,48,1.7,48.2,1.7,48.4L1.7,48.4z M1.7,51.6L1.7,51.6c0.1,0.2,0.2,0.4,0,0.6
		V51.6z M1.7,51.6"/>
</g>
<path d="M98.2,52.3v-0.6c0-0.1,0-0.1,0.1,0L98.2,52.3C98.2,52.4,98.2,52.4,98.2,52.3L98.2,52.3z M98.2,52.3"/>
<g>
	<defs>
		<rect id="SVGID_5_" x="1.7" y="1.6" width="96.7" height="96.8"/>
	</defs>
	<clipPath id="SVGID_6_">
		<use xlink:href="#SVGID_5_"  style="overflow:visible;"/>
	</clipPath>
	<path class="st2" d="M51.4,98.3C51.4,98.2,51.4,98.2,51.4,98.3c0.2-0.1,0.4-0.2,0.6,0H51.4z M51.4,98.3"/>
	<path class="st2" d="M1.7,47.1C1.7,47.1,1.7,47.1,1.7,47.1c0.1,0.2,0.2,0.3,0,0.5L1.7,47.1z M1.7,47.1"/>
</g>
<path d="M98.2,47.6C98.2,47.6,98.2,47.6,98.2,47.6l-0.1-0.5c0,0,0.1,0,0.1,0V47.6z M98.2,47.6"/>
<path d="M98.2,48.2C98.2,48.2,98.2,48.2,98.2,48.2l0.1,0.5c0,0.1-0.1,0.1-0.1,0C98.2,48.5,98.2,48.3,98.2,48.2L98.2,48.2z
	 M98.2,48.2"/>
<path d="M98.2,48.6C98.2,48.6,98.2,48.6,98.2,48.6l0.1,0.5C98.1,49,98.1,48.8,98.2,48.6L98.2,48.6z M98.2,51.3c0-0.2,0-0.3,0.1-0.5
	L98.2,51.3C98.2,51.4,98.2,51.4,98.2,51.3L98.2,51.3z M98.2,51.3"/>
<path d="M98.2,51.3C98.2,51.3,98.2,51.3,98.2,51.3l0.1,0.5c0,0-0.1,0-0.1,0L98.2,51.3z M98.2,51.3"/>
<path d="M1.7,52.8L1.7,52.8L1.7,52.8l-0.1-0.5C1.8,52.5,1.7,52.6,1.7,52.8L1.7,52.8z M1.7,52.8"/>
<path d="M98.2,52.3C98.2,52.3,98.2,52.3,98.2,52.3l0.1,0.5l0,0h0V52.3z M98.2,52.3"/>
<rect x="1.7" y="1.6" class="st3" width="96.7" height="96.8"/>
<g>
	<linearGradient id="SVGID_7_" gradientUnits="userSpaceOnUse" x1="17.8546" y1="15.3716" x2="81.8546" y2="84.3716">
		<stop  offset="0" style="stop-color:#F3E870"/>
		<stop  offset="1" style="stop-color:#E3A14C"/>
	</linearGradient>
	<path class="st4" d="M98.2,49.1c-0.1-0.2,0-0.3,0-0.5v-1.4c0-0.4,0-0.8,0-1.2c0-2-0.3-3.9-0.7-5.8c-1-4.7-2.7-9.2-5-13.4
		c-2.3-4.1-5.1-7.8-8.4-11.1c-1.1-1.1-2.3-2.1-3.5-3.1c-2.5-2.1-5.2-3.9-8.1-5.4c-3.7-2-7.6-3.4-11.7-4.3C58.9,2.2,57,1.9,55,1.8
		c-0.7,0-1.5,0-2.2-0.1H52c-0.2,0.1-0.5,0-0.7,0c-0.3,0-0.6,0.1-0.9,0h-1c-0.3,0.1-0.6,0-0.9,0c-0.2,0-0.5,0.1-0.7,0H47
		c-0.3,0.1-0.7,0.1-1,0.1c-2.2,0-4.4,0.3-6.5,0.8c-9.5,2.1-18.1,7-24.7,14c-1.2,1.2-2.3,2.5-3.3,3.8c-3.7,4.7-6.4,10.1-8.1,15.8
		c-1.1,3.6-1.7,7.2-1.7,10.9c0,0.2,0,0.3,0,0.5v0.2c0.1,0.2,0,0.4,0,0.6c0,0.2,0.1,0.5,0,0.7v1.7c0.1,0.2,0,0.5,0,0.7
		c0,0.2,0.1,0.4,0,0.6v0.2c0.1,0.2,0,0.3,0,0.5c0,1.2,0,2.5,0.2,3.7c0.3,2.8,1,5.4,1.8,8.1c1,3.3,2.4,6.5,4.2,9.5
		c2.2,3.8,4.9,7.3,8,10.4c1.1,1.1,2.2,2.1,3.4,3.1c2.5,2.1,5.3,3.9,8.2,5.4c3.6,1.9,7.5,3.4,11.5,4.3c1.7,0.4,3.4,0.8,5.2,0.9
		c1,0.1,1.9,0,2.9,0.2h0.8c0.2-0.1,0.5,0,0.7,0c0.3,0,0.6-0.1,0.9,0h0.9c0.3-0.1,0.6,0,0.9,0c0.2,0,0.4-0.1,0.6,0h0.8
		c0.5-0.1,1-0.1,1.4-0.1c1.2-0.1,2.4-0.1,3.6-0.3c3-0.5,6-1.3,8.9-2.3c7-2.6,13.3-6.7,18.4-12.2c1.2-1.2,2.3-2.5,3.3-3.8
		c3.6-4.7,6.4-10.1,8.1-15.8c1.1-3.6,1.7-7.2,1.7-11v-1.4c0-0.2,0-0.3,0-0.5L98.2,49.1z M68.6,62.2c-0.4,2.5-1.2,4.8-2.7,6.8
		c-1.9,2.6-4.4,4.2-7.4,5.3c-1.9,0.6-3.8,1.1-5.8,1.2c-0.4,0-0.6,0.2-0.6,0.6c0,0.7,0,1.3,0,2c0,0.3-0.1,0.4-0.4,0.4
		c-1.1,0-2.2,0-3.3,0c-0.3,0-0.4-0.1-0.4-0.4c0-0.7,0-1.4,0-2.1c0-0.4-0.1-0.4-0.4-0.5c-2.2-0.1-4.4-0.4-6.5-1.1
		c-5.3-1.7-8.3-5.3-9.3-10.8c-0.2-1.2-0.3-2.4-0.3-3.6c0-0.4,0.1-0.5,0.5-0.5c3.2,0,6.4,0,9.7,0c0.4,0,0.5,0.1,0.5,0.5
		c0.1,1.6,0.4,3.2,1.1,4.7c0.9,1.8,2.4,2.8,4.4,3.2c0.4,0.1,0.5,0,0.5-0.4c0-4.1,0-8.2,0-12.3c0-0.5-0.1-0.6-0.6-0.7
		c-2.8-0.7-5.6-1.5-8.2-2.7c-4.3-2-6.6-5.4-7.1-10.2c-0.4-4.5,0.8-8.4,3.7-11.8c2.1-2.4,4.9-3.8,8-4.7c1.2-0.4,2.5-0.6,3.8-0.8
		c0.3,0,0.4-0.1,0.4-0.4c0-0.9,0-1.8,0-2.7c0-0.3,0.1-0.4,0.4-0.4c1.1,0,2.2,0,3.3,0c0.4,0,0.4,0.1,0.4,0.4c0,0.9,0,1.7,0,2.6
		c0,0.3,0.1,0.5,0.4,0.5c3.2,0.4,6.2,1.1,9,2.8c3.5,2.1,5.4,5.2,5.9,9.2c0.1,0.8,0.2,1.7,0.2,2.5c0,0.3-0.1,0.3-0.4,0.3
		c-3.3,0-6.6,0-10,0c-0.3,0-0.3-0.1-0.3-0.4c-0.1-1.3-0.3-2.7-0.8-3.9c-0.6-1.4-1.4-2.6-3-3.1c-1-0.3-1-0.3-1,0.7v6.1
		c0,2.2,0,4.3,0,6.5c0,0.4,0.1,0.5,0.5,0.6c3,0.6,6,1.4,8.7,2.9c2.4,1.3,4.5,3,5.9,5.5C68.7,56.5,69.1,59.3,68.6,62.2L68.6,62.2z
		 M68.6,62.2"/>
	<linearGradient id="SVGID_8_" gradientUnits="userSpaceOnUse" x1="13.6893" y1="19.235" x2="77.6893" y2="88.235">
		<stop  offset="0" style="stop-color:#F3E870"/>
		<stop  offset="1" style="stop-color:#E3A14C"/>
	</linearGradient>
	<path class="st5" d="M52.2,55.6c1.3,0.3,2.4,0.8,3.3,1.6c0.9,0.8,1.5,1.8,1.7,3.1c0.2,1.5,0.2,3.1-0.4,4.5c-0.8,2-2.3,2.8-4.3,3.1
		c-0.2,0-0.3,0-0.3-0.3C52.2,63.7,52.2,59.7,52.2,55.6L52.2,55.6z"/>
	<linearGradient id="SVGID_9_" gradientUnits="userSpaceOnUse" x1="22.4851" y1="11.0766" x2="86.4851" y2="80.0766">
		<stop  offset="0" style="stop-color:#F3E870"/>
		<stop  offset="1" style="stop-color:#E3A14C"/>
	</linearGradient>
	<path class="st6" d="M48.2,37.9c0,2,0,4,0,5.9c0,0.4-0.1,0.4-0.4,0.3c-2-0.8-3.6-2-4-4.3c-0.4-2.2,0-4.4,1.1-6.3
		c0.6-1.1,1.6-1.7,2.9-1.9c0.3-0.1,0.4,0,0.4,0.4C48.2,33.9,48.2,35.9,48.2,37.9L48.2,37.9z"/>
</g>
<path d="M48.2,37.9"/>
</svg>
