<?xml version="1.0" encoding="utf-8"?>
<!-- Generator: Adobe Illustrator 19.0.0, SVG Export Plug-In . SVG Version: 6.00 Build 0)  -->
<svg version="1.1" id="图层_1" xmlns="http://www.w3.org/2000/svg" xmlns:xlink="http://www.w3.org/1999/xlink" x="0px" y="0px"
	 viewBox="0 0 100 100" style="enable-background:new 0 0 100 100;" xml:space="preserve">
<style type="text/css">
	.st0{fill:url(#XMLID_8_);}
</style>
<g id="XMLID_5_">
	<g id="XMLID_6_">
		<linearGradient id="XMLID_8_" gradientUnits="userSpaceOnUse" x1="14.1605" y1="8.3395" x2="82.1605" y2="76.3395">
			<stop  offset="0" style="stop-color:#A4CF28"/>
			<stop  offset="1" style="stop-color:#70B72D"/>
		</linearGradient>
		<path id="XMLID_7_" class="st0" d="M94,20.6C80,20.1,49.8,4.3,49.8,4.3h-0.5c0,0-29.3,15.8-43.4,16.3c-1.2,5.9,0.8,42.6,10.6,57.2
			c6.5,9.8,26.7,18.6,32.7,20.8c0,0,0.4,0.3,1.2,0c7.8-2.9,25.1-9.8,33-20.9C94.3,61.1,95.2,26.7,94,20.6L94,20.6z M67.6,48.5H53.3
			v6.7h14.2v5.5H53.3v12.7h-6.8V60.7H32.4v-5.5h14.1v-6.7H32.4v-5.6h11.5l-7.5-13.3h7.4c0,0,5.9,10.8,6.1,11.8
			c0.3-1.1,6.2-11.8,6.2-11.8h7.4L56,42.9h11.6V48.5z M67.6,48.5"/>
	</g>
</g>
</svg>
